<svg width="15" height="15" viewBox="0 0 15 15" fill="none" xmlns="http://www.w3.org/2000/svg">
<g clip-path="url(#clip0_185_171)">
<rect x="5" y="5" width="7.5" height="7.5" rx="1" stroke="#323236" stroke-linecap="round" stroke-linejoin="round"/>
<rect x="5" y="5" width="7.5" height="7.5" rx="1" stroke="white" stroke-opacity="0.2" stroke-linecap="round" stroke-linejoin="round"/>
<path d="M10 5V3.75C10 3.05964 9.44036 2.5 8.75 2.5H3.75C3.05964 2.5 2.5 3.05964 2.5 3.75V8.75C2.5 9.44036 3.05964 10 3.75 10H5" stroke="#323236" stroke-linecap="round" stroke-linejoin="round"/>
<path d="M10 5V3.75C10 3.05964 9.44036 2.5 8.75 2.5H3.75C3.05964 2.5 2.5 3.05964 2.5 3.75V8.75C2.5 9.44036 3.05964 10 3.75 10H5" stroke="white" stroke-opacity="0.2" stroke-linecap="round" stroke-linejoin="round"/>
</g>
<defs>
<clipPath id="clip0_185_171">
<rect width="15" height="15" fill="white"/>
</clipPath>
</defs>
</svg>
