<svg width="21" height="21" viewBox="0 0 21 21" fill="none" xmlns="http://www.w3.org/2000/svg">
<path d="M7.875 6.125H5.25C4.2835 6.125 3.5 6.9085 3.5 7.875V15.75C3.5 16.7165 4.2835 17.5 5.25 17.5H13.125C14.0915 17.5 14.875 16.7165 14.875 15.75V13.125" stroke="white" stroke-width="1.5" stroke-linecap="round" stroke-linejoin="round"/>
<path d="M7.875 6.125H5.25C4.2835 6.125 3.5 6.9085 3.5 7.875V15.75C3.5 16.7165 4.2835 17.5 5.25 17.5H13.125C14.0915 17.5 14.875 16.7165 14.875 15.75V13.125" stroke="white" stroke-opacity="0.2" stroke-width="1.5" stroke-linecap="round" stroke-linejoin="round"/>
<path d="M7.875 13.125H10.5L17.9375 5.68745C18.6624 4.96258 18.6624 3.78733 17.9375 3.06245C17.2126 2.33758 16.0374 2.33758 15.3125 3.06245L7.875 10.5V13.125" stroke="white" stroke-width="1.5" stroke-linecap="round" stroke-linejoin="round"/>
<path d="M7.875 13.125H10.5L17.9375 5.68745C18.6624 4.96258 18.6624 3.78733 17.9375 3.06245C17.2126 2.33758 16.0374 2.33758 15.3125 3.06245L7.875 10.5V13.125" stroke="white" stroke-opacity="0.2" stroke-width="1.5" stroke-linecap="round" stroke-linejoin="round"/>
<path d="M14 4.375L16.625 7" stroke="white" stroke-width="1.5" stroke-linecap="round" stroke-linejoin="round"/>
<path d="M14 4.375L16.625 7" stroke="white" stroke-opacity="0.2" stroke-width="1.5" stroke-linecap="round" stroke-linejoin="round"/>
</svg>
