<svg width="19" height="19" viewBox="0 0 19 19" fill="none" xmlns="http://www.w3.org/2000/svg">
<path d="M7.91669 11.0833C8.43785 11.6153 9.15118 11.915 9.89585 11.915C10.6405 11.915 11.3539 11.6153 11.875 11.0833L15.0417 7.91668C16.1348 6.82362 16.1348 5.05141 15.0417 3.95835C13.9486 2.86528 12.1764 2.86528 11.0834 3.95835L10.6875 4.35418" stroke="white" stroke-width="1.5" stroke-linecap="round" stroke-linejoin="round"/>
<path d="M7.91669 11.0833C8.43785 11.6153 9.15118 11.915 9.89585 11.915C10.6405 11.915 11.3539 11.6153 11.875 11.0833L15.0417 7.91668C16.1348 6.82362 16.1348 5.05141 15.0417 3.95835C13.9486 2.86528 12.1764 2.86528 11.0834 3.95835L10.6875 4.35418" stroke="white" stroke-opacity="0.2" stroke-width="1.5" stroke-linecap="round" stroke-linejoin="round"/>
<path d="M11.0832 7.91661C10.5621 7.38471 9.84873 7.08496 9.10406 7.08496C8.35939 7.08496 7.64606 7.38471 7.12489 7.91661L3.95823 11.0833C2.86516 12.1763 2.86516 13.9486 3.95823 15.0416C5.05129 16.1347 6.8235 16.1347 7.91656 15.0416L8.31239 14.6458" stroke="white" stroke-width="1.5" stroke-linecap="round" stroke-linejoin="round"/>
<path d="M11.0832 7.91661C10.5621 7.38471 9.84873 7.08496 9.10406 7.08496C8.35939 7.08496 7.64606 7.38471 7.12489 7.91661L3.95823 11.0833C2.86516 12.1763 2.86516 13.9486 3.95823 15.0416C5.05129 16.1347 6.8235 16.1347 7.91656 15.0416L8.31239 14.6458" stroke="white" stroke-opacity="0.2" stroke-width="1.5" stroke-linecap="round" stroke-linejoin="round"/>
</svg>
