<svg width="13" height="22" viewBox="0 0 13 22" fill="none" xmlns="http://www.w3.org/2000/svg">
<path d="M12.3098 14.7377C12.5129 14.7377 12.67 14.8405 12.7773 15.0422C12.8885 15.2401 12.9459 15.4971 12.9459 15.8111C12.9459 16.1974 12.8885 16.4962 12.7773 16.7093C12.67 16.9187 12.4975 17.0595 12.2638 17.1356C11.3287 17.4611 10.2958 17.6457 9.16716 17.6913C8.85482 18.9817 8.26463 20.0208 7.39658 20.8125C6.53237 21.6042 5.57618 22 4.52993 22C2.95097 22 1.80124 21.4043 1.08074 20.2111C0.360248 19.014 0 17.2841 0 15.0194C0 13.0154 0.249107 10.8382 0.751156 8.48789C1.25129 6.13374 1.98136 4.13166 2.9433 2.48166C3.90333 0.827855 5.04731 0 6.37716 0C7.09765 0 7.67443 0.308305 8.10942 0.921107C8.54823 1.5301 8.76859 2.32561 8.76859 3.30381C8.76859 4.57889 8.52523 5.84446 8.04043 7.10242C7.55946 8.35657 6.75465 9.67543 5.626 11.0609C6.67225 11.137 7.52305 11.569 8.1784 12.355C8.83758 13.1372 9.2304 14.1021 9.35879 15.2478C10.0946 15.2021 10.9684 15.0479 11.9802 14.7834C12.076 14.7529 12.1871 14.7377 12.3098 14.7377ZM5.84062 2.29896C5.52828 2.29896 5.18911 2.76142 4.82119 3.68443C4.45328 4.60934 4.11219 5.86159 3.80177 7.44498C3.48942 9.02837 3.25373 10.7621 3.0966 12.6443C4.12752 10.7621 4.95341 9.1045 5.57235 7.67336C6.18937 6.23841 6.4998 4.95952 6.4998 3.83668C6.4998 3.33997 6.44039 2.95934 6.3235 2.69481C6.2047 2.43218 6.04374 2.29896 5.84062 2.29896ZM4.62191 19.5336C5.10671 19.5336 5.53594 19.3337 5.9096 18.9322C6.2871 18.5268 6.53812 17.9426 6.66076 17.1813C6.17404 16.8578 5.80229 16.4315 5.54169 15.9024C5.28492 15.3753 5.15845 14.8176 5.15845 14.2277C5.15845 14.0107 5.18911 13.7138 5.25042 13.337H5.18144C4.54143 13.337 4.00872 13.6529 3.57949 14.281C3.15025 14.9109 2.93564 15.754 2.93564 16.8083C2.93564 17.6971 3.10043 18.3746 3.43385 18.8408C3.77111 19.3033 4.16585 19.5336 4.62191 19.5336Z" fill="white"/>
</svg>
