<svg width="144" height="41" viewBox="0 0 144 41" fill="none" xmlns="http://www.w3.org/2000/svg">
<path d="M22.2603 26.6509C22.6276 26.6509 22.9118 26.8367 23.1058 27.2015C23.3068 27.5595 23.4108 28.0241 23.4108 28.5919C23.4108 29.2905 23.3068 29.8308 23.1058 30.2163C22.9118 30.5949 22.5999 30.8495 22.1771 30.9872C20.4861 31.5757 18.6184 31.9095 16.5774 31.9921C16.0126 34.3254 14.9453 36.2045 13.3756 37.6361C11.8128 39.0678 10.0837 39.7836 8.19168 39.7836C5.33638 39.7836 3.25727 38.7065 1.95436 36.5486C0.651454 34.3839 0 31.2556 0 27.1603C0 23.5364 0.450473 19.5993 1.35835 15.3491C2.26276 11.0919 3.583 7.47148 5.32252 4.4877C7.05857 1.49705 9.12728 0 11.5321 0C12.835 0 13.878 0.557522 14.6646 1.66568C15.4582 2.76696 15.8567 4.2055 15.8567 5.97443C15.8567 8.28023 15.4166 10.5688 14.5399 12.8436C13.6701 15.1116 12.2148 17.4965 10.1738 20.0019C12.0658 20.1396 13.6043 20.9208 14.7894 22.3422C15.9814 23.7566 16.6918 25.5015 16.9239 27.5732C18.2546 27.4906 19.8347 27.2119 21.6643 26.7335C21.8376 26.6784 22.0385 26.6509 22.2603 26.6509ZM10.5619 4.15732C9.99704 4.15732 9.38371 4.9936 8.71839 6.66273C8.05308 8.33529 7.43627 10.5998 6.87492 13.4631C6.31009 16.3264 5.88387 19.4616 5.59973 22.8653C7.464 19.4616 8.95749 16.4641 10.0767 13.8761C11.1925 11.2812 11.7539 8.96853 11.7539 6.93805C11.7539 6.03982 11.6465 5.35152 11.4351 4.87315C11.2203 4.39823 10.9292 4.15732 10.5619 4.15732ZM8.35801 35.3235C9.2347 35.3235 10.0109 34.9621 10.6866 34.236C11.3693 33.5029 11.8232 32.4464 12.045 31.0698C11.1648 30.4847 10.4926 29.7138 10.0213 28.7571C9.55697 27.8038 9.32826 26.7955 9.32826 25.7286C9.32826 25.3363 9.38371 24.7994 9.49459 24.118H9.36984C8.21247 24.118 7.24916 24.6893 6.47296 25.825C5.69675 26.9641 5.30865 28.4887 5.30865 30.3953C5.30865 32.0024 5.60666 33.2276 6.2096 34.0708C6.81947 34.907 7.5333 35.3235 8.35801 35.3235Z" fill="white"/>
<path d="M25.6084 39.7836C23.7684 39.7836 22.4343 39.1435 21.6027 37.8563C20.771 36.5623 20.3552 34.8485 20.3552 32.7079C20.3552 31.4517 20.5146 29.8308 20.8403 27.8485C21.1626 25.8662 21.5784 24.0215 22.0878 22.3146C22.3442 21.4163 22.6838 20.8003 23.0996 20.4699C23.5224 20.1327 24.2016 19.9606 25.1372 19.9606C26.5787 19.9606 27.2994 20.439 27.2994 21.3922C27.2994 22.0909 27.0292 23.7153 26.4955 26.2654C25.8198 29.3593 25.4837 31.4517 25.4837 32.5427C25.4837 33.3893 25.5946 34.0363 25.8163 34.4837C26.045 34.9345 26.4297 35.1582 26.9668 35.1582C27.4727 35.1582 28.1068 34.8106 28.8657 34.112C29.6315 33.4065 30.6537 32.2949 31.9289 30.7806C32.2685 30.3883 32.6497 30.1887 33.0655 30.1887C33.4328 30.1887 33.7239 30.3608 33.9387 30.698C34.1501 31.0284 34.2575 31.4896 34.2575 32.0746C34.2575 33.2034 33.9872 34.0776 33.4536 34.6902C30.6537 38.0869 28.0375 39.7836 25.6084 39.7836ZM25.6084 17.1799C24.4164 17.1799 23.5224 16.9045 22.9333 16.3539C22.3408 15.8033 22.0462 15.0393 22.0462 14.055C22.0462 13.0742 22.4343 12.2516 23.2105 11.5909C23.9867 10.9301 24.9501 10.5997 26.1074 10.5997C27.1504 10.5997 27.9959 10.8578 28.6439 11.3706C29.2989 11.8765 29.628 12.5889 29.628 13.5044C29.628 14.6332 29.2573 15.5279 28.5192 16.1887C27.788 16.8495 26.8178 17.1799 25.6084 17.1799Z" fill="white"/>
<path d="M50.3677 30.1887C50.735 30.1887 51.026 30.3608 51.2409 30.6981C51.4523 31.0285 51.5597 31.4896 51.5597 32.0747C51.5597 33.2035 51.2894 34.0776 50.7558 34.6902C49.536 36.1769 48.2054 37.3987 46.7639 38.352C45.3224 39.3087 43.666 39.7836 41.8017 39.7836C36.0357 39.7836 33.1526 35.7571 33.1526 27.6971C33.1526 26.4685 33.1942 25.2192 33.2774 23.9528H31.628C30.7755 23.9528 30.2038 23.8013 29.9092 23.4985C29.6112 23.1887 29.4657 22.6932 29.4657 22.0117C29.4657 20.4424 30.1033 19.6578 31.3785 19.6578H33.7902C34.2684 16.5742 35.0031 13.7591 35.9941 11.2055C36.9817 8.645 38.1737 6.60763 39.5702 5.09338C40.9736 3.57224 42.4809 2.80823 44.0888 2.80823C45.2808 2.80823 46.2129 3.33133 46.8886 4.37755C47.5713 5.41688 47.9143 6.71776 47.9143 8.28708C47.9143 12.6371 46.0743 16.4297 42.3977 19.6578H47.152C47.6024 19.6578 47.9282 19.761 48.1222 19.9606C48.3163 20.1533 48.4133 20.5181 48.4133 21.0481C48.4133 22.9857 46.8193 23.9528 43.6314 23.9528H38.4613C38.3955 25.3569 38.3643 26.4547 38.3643 27.2428C38.3643 30.1612 38.7108 32.2123 39.4038 33.3962C40.0969 34.5732 41.1919 35.1582 42.6888 35.1582C43.9086 35.1582 44.9828 34.7969 45.9184 34.0707C46.8505 33.3377 47.9559 32.2399 49.2311 30.7807C49.5637 30.3883 49.9414 30.1887 50.3677 30.1887ZM42.9522 6.85542C42.526 6.85542 42.0512 7.38541 41.5245 8.43851C41.0047 9.49505 40.5127 10.9542 40.0414 12.8161C39.5771 14.6814 39.189 16.7497 38.8771 19.0245C40.5473 17.5929 41.8017 15.9891 42.6334 14.2064C43.465 12.4272 43.8808 10.8063 43.8808 9.34706C43.8808 7.68826 43.569 6.85542 42.9522 6.85542Z" fill="white"/>
<path d="M56.6449 40.7197C55.1757 40.7197 54.046 40.379 53.2629 39.701C52.4867 39.0333 52.0986 38.2762 52.0986 37.4296C52.0986 36.6966 52.3654 36.0633 52.9025 35.5299C53.4466 34.9999 54.2401 34.7315 55.2866 34.7315C55.6539 34.7315 56.0836 34.7693 56.5756 34.8416C57.0746 34.9173 57.4489 34.9655 57.6983 34.993C57.6706 34.26 57.5078 33.5717 57.2132 32.9281C56.9152 32.2777 56.541 31.6548 56.0905 31.056C55.6366 30.4503 55.2103 29.9237 54.8153 29.4729C53.9352 31.1248 53.0689 32.5014 52.2095 33.6027C51.3501 34.6971 50.4111 35.733 49.3958 36.7138C48.8864 37.2197 48.3458 37.4709 47.7741 37.4709C47.3305 37.4709 46.9632 37.3126 46.6791 36.9891C46.3949 36.669 46.2494 36.2698 46.2494 35.7915C46.2494 35.2339 46.4504 34.7143 46.8454 34.2359L47.3998 33.5614C48.9522 31.6548 50.1235 30.0786 50.9205 28.8396C51.3986 28.024 51.9635 26.9365 52.6115 25.5771C53.2664 24.2212 53.904 22.8067 54.5242 21.3372C55.0579 20.1086 56.1771 19.4926 57.8785 19.4926C58.6617 19.4926 59.2092 19.5614 59.5141 19.699C59.826 19.8367 59.9854 20.0638 59.9854 20.3736C59.9854 20.5388 59.9299 20.8072 59.819 21.172C59.7081 21.5402 59.5557 21.9085 59.3616 22.2733C58.8522 23.2851 58.5993 24.1386 58.5993 24.8337C58.5993 25.2571 58.7448 25.7217 59.0428 26.2241C59.3374 26.73 59.7948 27.3632 60.415 28.1238C61.3195 29.3008 62.0021 30.3057 62.4664 31.1386C62.9377 31.9645 63.1733 32.8696 63.1733 33.8505C63.1733 34.1361 63.1456 34.5319 63.0902 35.0343C64.4762 34.5043 66.1014 33.0864 67.9691 30.7806C68.3018 30.3883 68.6795 30.1887 69.1057 30.1887C69.473 30.1887 69.7641 30.3608 69.9789 30.698C70.1903 31.0284 70.2977 31.4896 70.2977 32.0746C70.2977 33.1484 70.0275 34.0225 69.4938 34.6902C68.08 36.435 66.7251 37.6223 65.4326 38.2556C64.147 38.8819 62.5565 39.2261 60.6645 39.288C59.5349 40.2413 58.1973 40.7197 56.6449 40.7197Z" fill="white"/>
<path d="M91.0314 30.1888C91.3918 30.1888 91.676 30.3608 91.8908 30.6981C92.1022 31.0285 92.2096 31.4896 92.2096 32.0747C92.2096 33.2035 91.9393 34.0776 91.4057 34.6902C90.1028 36.177 88.7652 37.3987 87.3999 38.352C86.0312 39.3087 84.4684 39.7836 82.715 39.7836C81.2735 39.7836 80.182 39.3707 79.4439 38.5447C78.7127 37.7187 78.3489 36.5211 78.3489 34.9518C78.3489 34.1637 78.5464 32.7596 78.9449 30.7394C79.3122 28.9705 79.4993 27.7453 79.4993 27.0639C79.4993 26.6234 79.3399 26.4031 79.0281 26.4031C78.6573 26.4031 78.1306 26.8712 77.4479 27.8073C76.7722 28.7433 76.0931 29.9892 75.4104 31.5378C74.7347 33.0796 74.1907 34.7109 73.7749 36.4247C73.2274 38.6652 71.8967 39.7836 69.783 39.7836C68.9305 39.7836 68.3726 39.4877 68.1058 38.8889C67.8355 38.2832 67.7039 37.1922 67.7039 35.6126C67.7039 34.7246 67.7177 34.0088 67.7454 33.4651L67.787 30.1062C67.787 25.7837 68.2306 21.2787 69.1177 16.588C70.0117 11.9007 71.3284 7.96361 73.068 4.77679C74.804 1.59341 76.8866 0 79.3191 0C80.622 0 81.6755 0.557522 82.4794 1.66568C83.2833 2.76696 83.6853 4.2055 83.6853 5.97443C83.6853 8.81022 82.8467 11.7527 81.1765 14.7984C79.5132 17.8476 76.8034 21.4026 73.0541 25.467C72.9605 26.9262 72.9155 28.4336 72.9155 29.9823C73.8476 27.5973 74.8872 25.6529 76.0341 24.1455C77.1777 22.6416 78.3108 21.5678 79.43 20.9243C80.5458 20.2841 81.5715 19.9607 82.5071 19.9607C84.3436 19.9607 85.2654 20.8692 85.2654 22.6863C85.2654 23.7876 84.9501 25.7699 84.3229 28.6332C83.7858 31.0767 83.5189 32.6873 83.5189 33.4651C83.5189 34.5939 83.9278 35.1583 84.7525 35.1583C85.3139 35.1583 85.9861 34.8141 86.7623 34.1258C87.5385 33.4375 88.5781 32.3225 89.881 30.7807C90.2206 30.3884 90.6052 30.1888 91.0314 30.1888ZM78.4321 4.15732C77.9227 4.15732 77.3544 4.88348 76.7272 6.33234C76.1069 7.77433 75.5074 9.72566 74.9253 12.1829C74.3501 14.6435 73.8788 17.3176 73.5115 20.2084C75.2649 18.1642 76.7168 15.9341 77.8638 13.5182C79.0073 11.0954 79.5825 8.90314 79.5825 6.93805C79.5825 6.03982 79.4785 5.35152 79.2776 4.87315C79.0835 4.39823 78.7994 4.15732 78.4321 4.15732Z" fill="white"/>
<path d="M92.4211 39.7837C91.3469 39.7837 90.5915 39.2262 90.1479 38.1042C89.7113 36.9858 89.4965 35.1859 89.4965 32.708C89.4965 29.0669 90.0162 25.6013 91.0627 22.3147C91.3191 21.499 91.735 20.9037 92.3102 20.5251C92.8923 20.15 93.7032 19.9607 94.7497 19.9607C95.311 19.9607 95.7061 20.0295 95.9278 20.1672C96.1565 20.3048 96.2744 20.5733 96.2744 20.9656C96.2744 21.4164 96.0664 22.4248 95.6506 23.9941C95.363 25.1229 95.1308 26.1106 94.9576 26.9538C94.7913 27.7901 94.6526 28.826 94.5418 30.0649C95.4739 27.6524 96.5169 25.6873 97.6743 24.1731C98.8386 22.6519 99.9752 21.5679 101.084 20.9243C102.2 20.2842 103.226 19.9607 104.161 19.9607C105.998 19.9607 106.919 20.8692 106.919 22.6864C106.919 23.0546 106.795 23.9391 106.545 25.3432C106.313 26.4651 106.199 27.1672 106.199 27.4494C106.199 28.4336 106.552 28.9223 107.266 28.9223C108.049 28.9223 109.068 28.3029 110.315 27.0639C110.683 26.706 111.067 26.5271 111.466 26.5271C111.826 26.5271 112.11 26.6888 112.325 27.0089C112.536 27.3324 112.644 27.7591 112.644 28.2891C112.644 29.3284 112.36 30.1441 111.798 30.7394C111.001 31.5482 110.073 32.2399 109.012 32.8181C107.959 33.3963 106.836 33.6854 105.644 33.6854C104.147 33.6854 103.011 33.3102 102.234 32.5566C101.458 31.796 101.07 30.767 101.07 29.473C101.07 29.0531 101.112 28.6298 101.195 28.2065C101.25 27.649 101.278 27.267 101.278 27.0639C101.278 26.6234 101.126 26.4032 100.821 26.4032C100.394 26.4032 99.8366 26.8712 99.1435 27.8073C98.4505 28.7434 97.7609 29.9892 97.0783 31.5379C96.4026 33.0797 95.8516 34.7109 95.4288 36.4248C95.1239 37.7394 94.7635 38.6273 94.3477 39.0954C93.9388 39.5565 93.2978 39.7837 92.4211 39.7837Z" fill="white"/>
<path d="M128.244 30.1887C128.611 30.1887 128.903 30.3608 129.117 30.6981C129.329 31.0285 129.436 31.4896 129.436 32.0747C129.436 33.2035 129.166 34.0776 128.632 34.6902C127.412 36.1769 126.082 37.3987 124.64 38.352C123.199 39.3087 121.542 39.7836 119.678 39.7836C113.912 39.7836 111.029 35.7571 111.029 27.6971C111.029 26.4685 111.071 25.2192 111.154 23.9528H109.504C108.652 23.9528 108.08 23.8013 107.786 23.4985C107.488 23.1887 107.342 22.6932 107.342 22.0117C107.342 20.4424 107.98 19.6578 109.255 19.6578H111.667C112.145 16.5742 112.88 13.7591 113.871 11.2055C114.858 8.645 116.05 6.60763 117.447 5.09338C118.85 3.57224 120.357 2.80823 121.965 2.80823C123.157 2.80823 124.089 3.33133 124.765 4.37755C125.448 5.41688 125.791 6.71776 125.791 8.28708C125.791 12.6371 123.951 16.4297 120.274 19.6578H125.028C125.479 19.6578 125.805 19.761 125.999 19.9606C126.193 20.1533 126.29 20.5181 126.29 21.0481C126.29 22.9857 124.696 23.9528 121.508 23.9528H116.338C116.272 25.3569 116.241 26.4547 116.241 27.2428C116.241 30.1612 116.587 32.2123 117.28 33.3962C117.973 34.5732 119.068 35.1582 120.565 35.1582C121.785 35.1582 122.859 34.7969 123.795 34.0707C124.727 33.3377 125.832 32.2399 127.108 30.7807C127.44 30.3883 127.818 30.1887 128.244 30.1887ZM120.829 6.85542C120.402 6.85542 119.928 7.38541 119.401 8.43851C118.881 9.49505 118.389 10.9542 117.918 12.8161C117.454 14.6814 117.065 16.7497 116.754 19.0245C118.424 17.5929 119.678 15.9891 120.51 14.2064C121.341 12.4272 121.757 10.8063 121.757 9.34706C121.757 7.68826 121.445 6.85542 120.829 6.85542Z" fill="white"/>
<path d="M139.289 39.7836C138.042 39.7836 137.099 39.4498 136.462 38.7787C135.831 38.1008 135.519 37.2163 135.519 36.1219C135.519 34.8657 135.88 33.8574 136.6 33.0934C137.321 32.3328 138.326 31.9508 139.622 31.9508C140.87 31.9508 141.812 32.2537 142.45 32.8594C143.087 33.4651 143.406 34.3564 143.406 35.53C143.406 36.824 143.035 37.8564 142.297 38.6273C141.566 39.3982 140.565 39.7836 139.289 39.7836Z" fill="white"/>
</svg>
