<svg width="24" height="24" viewBox="0 0 24 24" fill="none" xmlns="http://www.w3.org/2000/svg">
<rect x="4" y="4" width="6" height="6" rx="1" stroke="#B3BFF9" stroke-width="1.5" stroke-linecap="round" stroke-linejoin="round"/>
<rect x="4" y="4" width="6" height="6" rx="1" stroke="white" stroke-opacity="0.2" stroke-width="1.5" stroke-linecap="round" stroke-linejoin="round"/>
<path d="M7 17V17.01" stroke="#B3BFF9" stroke-width="1.5" stroke-linecap="round" stroke-linejoin="round"/>
<path d="M7 17V17.01" stroke="white" stroke-opacity="0.2" stroke-width="1.5" stroke-linecap="round" stroke-linejoin="round"/>
<rect x="14" y="4" width="6" height="6" rx="1" stroke="#B3BFF9" stroke-width="1.5" stroke-linecap="round" stroke-linejoin="round"/>
<rect x="14" y="4" width="6" height="6" rx="1" stroke="white" stroke-opacity="0.2" stroke-width="1.5" stroke-linecap="round" stroke-linejoin="round"/>
<path d="M7 7V7.01" stroke="#B3BFF9" stroke-width="1.5" stroke-linecap="round" stroke-linejoin="round"/>
<path d="M7 7V7.01" stroke="white" stroke-opacity="0.2" stroke-width="1.5" stroke-linecap="round" stroke-linejoin="round"/>
<rect x="4" y="14" width="6" height="6" rx="1" stroke="#B3BFF9" stroke-width="1.5" stroke-linecap="round" stroke-linejoin="round"/>
<rect x="4" y="14" width="6" height="6" rx="1" stroke="white" stroke-opacity="0.2" stroke-width="1.5" stroke-linecap="round" stroke-linejoin="round"/>
<path d="M17 7V7.01" stroke="#B3BFF9" stroke-width="1.5" stroke-linecap="round" stroke-linejoin="round"/>
<path d="M17 7V7.01" stroke="white" stroke-opacity="0.2" stroke-width="1.5" stroke-linecap="round" stroke-linejoin="round"/>
<path d="M14 14H17" stroke="#B3BFF9" stroke-width="1.5" stroke-linecap="round" stroke-linejoin="round"/>
<path d="M14 14H17" stroke="white" stroke-opacity="0.2" stroke-width="1.5" stroke-linecap="round" stroke-linejoin="round"/>
<path d="M20 14V14.01" stroke="#B3BFF9" stroke-width="1.5" stroke-linecap="round" stroke-linejoin="round"/>
<path d="M20 14V14.01" stroke="white" stroke-opacity="0.2" stroke-width="1.5" stroke-linecap="round" stroke-linejoin="round"/>
<path d="M14 14V17" stroke="#B3BFF9" stroke-width="1.5" stroke-linecap="round" stroke-linejoin="round"/>
<path d="M14 14V17" stroke="white" stroke-opacity="0.2" stroke-width="1.5" stroke-linecap="round" stroke-linejoin="round"/>
<path d="M14 20H17" stroke="#B3BFF9" stroke-width="1.5" stroke-linecap="round" stroke-linejoin="round"/>
<path d="M14 20H17" stroke="white" stroke-opacity="0.2" stroke-width="1.5" stroke-linecap="round" stroke-linejoin="round"/>
<path d="M17 17H20" stroke="#B3BFF9" stroke-width="1.5" stroke-linecap="round" stroke-linejoin="round"/>
<path d="M17 17H20" stroke="white" stroke-opacity="0.2" stroke-width="1.5" stroke-linecap="round" stroke-linejoin="round"/>
<path d="M20 17V20" stroke="#B3BFF9" stroke-width="1.5" stroke-linecap="round" stroke-linejoin="round"/>
<path d="M20 17V20" stroke="white" stroke-opacity="0.2" stroke-width="1.5" stroke-linecap="round" stroke-linejoin="round"/>
</svg>
