<svg width="14" height="15" viewBox="0 0 14 15" fill="none" xmlns="http://www.w3.org/2000/svg">
<path fill-rule="evenodd" clip-rule="evenodd" d="M9.90137 5.88154C9.90137 8.34589 7.97685 10.2631 5.70069 10.2631C3.42453 10.2631 1.5 8.34589 1.5 5.88154C1.5 3.41718 3.42453 1.5 5.70069 1.5C7.97685 1.5 9.90137 3.41718 9.90137 5.88154ZM8.75673 10.8474C7.87349 11.4272 6.82511 11.7631 5.70069 11.7631C2.55228 11.7631 0 9.12982 0 5.88154C0 2.63325 2.55228 0 5.70069 0C8.84909 0 11.4014 2.63325 11.4014 5.88154C11.4014 7.41899 10.8296 8.81866 9.89347 9.86655L13.5059 13.6086L12.4641 14.6878L8.75673 10.8474Z" fill="#B8B3B3"/>
</svg>
